<svg width="12" height="13" viewBox="0 0 12 13" fill="none" xmlns="http://www.w3.org/2000/svg">
<path d="M4.24984 1.74989C4.4196 1.74987 4.58732 1.78689 4.74129 1.85838C4.89526 1.92987 5.03178 2.0341 5.14131 2.1638C5.25084 2.29349 5.33075 2.44553 5.37546 2.60929C5.42017 2.77306 5.4286 2.94461 5.40017 3.11197L6.55108 3.30447C6.59547 3.04161 6.59449 2.77309 6.54817 2.51056C6.76892 2.37232 7.02958 2.31192 7.28863 2.339C7.54768 2.36607 7.79022 2.47905 7.97762 2.65994C8.16502 2.84083 8.2865 3.07923 8.32271 3.33716C8.35892 3.5951 8.30777 3.85773 8.17742 4.08322H1.9165C1.82596 4.08312 1.73668 4.06195 1.65574 4.02138C1.5748 3.98081 1.50441 3.92195 1.45015 3.84947C1.39589 3.77698 1.35925 3.69287 1.34313 3.60377C1.327 3.51468 1.33184 3.42305 1.35726 3.33615C1.38267 3.24925 1.42797 3.16945 1.48956 3.10309C1.55115 3.03672 1.62734 2.9856 1.7121 2.95378C1.79687 2.92195 1.88788 2.9103 1.97793 2.91973C2.06798 2.92917 2.15459 2.95944 2.23092 3.00814C2.30949 3.05847 2.39899 3.08921 2.49191 3.09779C2.58482 3.10637 2.67844 3.09254 2.7649 3.05745C2.85136 3.02236 2.92814 2.96705 2.9888 2.89614C3.04946 2.82524 3.09222 2.74082 3.1135 2.64997C3.17364 2.39377 3.31862 2.16543 3.52491 2.00203C3.7312 1.83863 3.98667 1.74977 4.24984 1.74989ZM5.13417 0.756473C4.607 0.540484 4.01903 0.524821 3.48111 0.712437C2.94319 0.900053 2.4925 1.27798 2.214 1.77497C1.83951 1.71026 1.45412 1.76922 1.1161 1.94293C0.778081 2.11665 0.5058 2.39569 0.340413 2.73786C0.175026 3.08003 0.125524 3.46674 0.199389 3.83954C0.273254 4.21234 0.466472 4.55096 0.749836 4.80422V11.6666C0.749836 11.976 0.872752 12.2727 1.09154 12.4915C1.31034 12.7103 1.60708 12.8332 1.9165 12.8332H7.74984C8.05925 12.8332 8.356 12.7103 8.57479 12.4915C8.79359 12.2727 8.9165 11.976 8.9165 11.6666H10.0832C10.3926 11.6666 10.6893 11.5436 10.9081 11.3248C11.1269 11.1061 11.2498 10.8093 11.2498 10.4999V6.41656C11.2498 6.10714 11.1269 5.81039 10.9081 5.5916C10.6893 5.37281 10.3926 5.24989 10.0832 5.24989H8.9165V5.04339C9.27913 4.63281 9.48575 4.10773 9.50016 3.56013C9.51456 3.01252 9.33585 2.47731 8.99531 2.04823C8.65477 1.61915 8.17412 1.32356 7.63755 1.21323C7.10098 1.10291 6.5427 1.18489 6.0605 1.44481C5.81423 1.14142 5.49571 0.904732 5.13417 0.756473ZM8.9165 6.41656H10.0832V10.4999H8.9165V6.41656ZM7.74984 5.24989V11.6666H1.9165V5.24989H7.74984ZM3.08317 6.41656V10.4999H4.24984V6.41656H3.08317ZM6.58317 6.41656V10.4999H5.4165V6.41656H6.58317Z" fill="#FF9D00"/>
</svg>
