<svg width="14" height="10" viewBox="0 0 14 10" fill="none" xmlns="http://www.w3.org/2000/svg">
<path d="M4.33333 6.33333V9M9.66667 1V1.33333C9.66667 1.68696 9.80714 2.02609 10.0572 2.27614C10.3072 2.52619 10.6464 2.66667 11 2.66667C11.3536 2.66667 11.6928 2.80714 11.9428 3.05719C12.1929 3.30724 12.3333 3.64638 12.3333 4V4.33333M1 7C1 6.82319 1.07024 6.65362 1.19526 6.5286C1.32029 6.40357 1.48986 6.33333 1.66667 6.33333H12.3333C12.5101 6.33333 12.6797 6.40357 12.8047 6.5286C12.9298 6.65362 13 6.82319 13 7V8.33333C13 8.51014 12.9298 8.67971 12.8047 8.80474C12.6797 8.92976 12.5101 9 12.3333 9H1.66667C1.48986 9 1.32029 8.92976 1.19526 8.80474C1.07024 8.67971 1 8.51014 1 8.33333V7Z" stroke="#8C8C8C" stroke-width="1.4" stroke-linecap="round" stroke-linejoin="round"/>
</svg>
