<svg width="13" height="13" viewBox="0 0 13 13" fill="none" xmlns="http://www.w3.org/2000/svg">
<path d="M0.590909 13C0.876515 12.1983 1.0662 11.3724 1.15995 10.5222C1.25371 9.672 1.31024 8.81877 1.32955 7.9625C0.945455 7.8 0.627939 7.52917 0.377 7.15C0.126061 6.77083 0.000393939 6.3375 0 5.85V4.55C1.13258 4.13833 2.28741 3.51 3.4645 2.665C4.64159 1.82 5.65342 0.931667 6.5 0C7.34697 0.931667 8.359 1.82 9.53609 2.665C10.7132 3.51 11.8678 4.13833 13 4.55V5.85C13 6.3375 12.8743 6.77083 12.623 7.15C12.3717 7.52917 12.0542 7.8 11.6705 7.9625C11.6902 8.81833 11.7469 9.67157 11.8406 10.5222C11.9344 11.3728 12.1239 12.1988 12.4091 13H0.590909ZM2.89545 4.55H10.1045C9.33636 4.07333 8.64461 3.58323 8.02927 3.0797C7.41394 2.57617 6.90418 2.1346 6.5 1.755C6.09621 2.13417 5.58645 2.57573 4.97073 3.0797C4.355 3.58367 3.66324 4.07377 2.89545 4.55ZM7.97727 6.825C8.22348 6.825 8.43286 6.73032 8.60541 6.54095C8.77795 6.35158 8.86403 6.12127 8.86364 5.85H7.09091C7.09091 6.12083 7.17718 6.35115 7.34973 6.54095C7.52227 6.73075 7.73145 6.82543 7.97727 6.825ZM5.02273 6.825C5.26894 6.825 5.47832 6.73032 5.65086 6.54095C5.82341 6.35158 5.90949 6.12127 5.90909 5.85H4.13636C4.13636 6.12083 4.22264 6.35115 4.39518 6.54095C4.56773 6.73075 4.77691 6.82543 5.02273 6.825ZM2.06818 6.825C2.31439 6.825 2.52377 6.73032 2.69632 6.54095C2.86886 6.35158 2.95494 6.12127 2.95455 5.85H1.18182C1.18182 6.12083 1.26809 6.35115 1.44064 6.54095C1.61318 6.73075 1.82236 6.82543 2.06818 6.825ZM2.15682 11.7H3.7375C3.82614 11.05 3.89508 10.4054 3.94432 9.76625C3.99356 9.12708 4.03295 8.4825 4.0625 7.8325C3.97386 7.77833 3.88523 7.72135 3.79659 7.66155C3.70795 7.60175 3.62424 7.52873 3.54545 7.4425C3.39773 7.605 3.23779 7.73782 3.06564 7.84095C2.89348 7.94408 2.70873 8.02252 2.51136 8.07625C2.49167 8.69375 2.4572 9.30323 2.40795 9.9047C2.35871 10.5062 2.275 11.1046 2.15682 11.7ZM4.93409 11.7H8.06591C7.98712 11.1042 7.92567 10.5083 7.88155 9.9125C7.83742 9.31667 7.80039 8.71542 7.77045 8.10875C7.51439 8.08708 7.28059 8.01948 7.06905 7.90595C6.8575 7.79242 6.66782 7.64335 6.5 7.45875C6.33258 7.64292 6.13817 7.79198 5.91677 7.90595C5.69538 8.01992 5.4663 8.08752 5.22955 8.10875C5.2 8.71542 5.16317 9.31667 5.11905 9.9125C5.07492 10.5083 5.01327 11.1042 4.93409 11.7ZM9.2625 11.7H10.8432C10.725 11.1042 10.6413 10.5057 10.592 9.9047C10.5428 9.30367 10.5083 8.69418 10.4886 8.07625C10.2917 8.02208 10.1045 7.94343 9.92727 7.8403C9.75 7.73717 9.59242 7.60457 9.45455 7.4425C9.37576 7.52917 9.29205 7.6024 9.20341 7.6622C9.11477 7.722 9.02614 7.77877 8.9375 7.8325C8.96705 8.4825 9.009 9.12708 9.06336 9.76625C9.11773 10.4054 9.18411 11.05 9.2625 11.7ZM10.9318 6.825C11.178 6.825 11.3874 6.73032 11.56 6.54095C11.7325 6.35158 11.8186 6.12127 11.8182 5.85H10.0455C10.0455 6.12083 10.1317 6.35115 10.3043 6.54095C10.4768 6.73075 10.686 6.82543 10.9318 6.825Z" fill="#B910D6"/>
</svg>
