<svg width="12" height="14" viewBox="0 0 12 14" fill="none" xmlns="http://www.w3.org/2000/svg">
<path d="M2.66732 3.66667C3.4037 3.66667 4.00065 3.06971 4.00065 2.33333C4.00065 1.59695 3.4037 1 2.66732 1C1.93094 1 1.33398 1.59695 1.33398 2.33333C1.33398 3.06971 1.93094 3.66667 2.66732 3.66667Z" stroke="#8C8C8C" stroke-width="1.3" stroke-linecap="round" stroke-linejoin="round"/>
<path d="M8.66732 3.66667C9.4037 3.66667 10.0007 3.06971 10.0007 2.33333C10.0007 1.59695 9.4037 1 8.66732 1C7.93094 1 7.33398 1.59695 7.33398 2.33333C7.33398 3.06971 7.93094 3.66667 8.66732 3.66667Z" stroke="#8C8C8C" stroke-width="1.3" stroke-linecap="round" stroke-linejoin="round"/>
<path d="M1 5.66675H4.33333L3.66667 13.0001H1.66667L1 5.66675ZM7 5.66675H10.3333L11 9.33341H10L9.66667 13.0001H7.66667L7.33333 9.33341H6.33333L7 5.66675Z" stroke="#8C8C8C" stroke-width="1.3" stroke-linecap="round" stroke-linejoin="round"/>
</svg>
