<svg width="14" height="14" viewBox="0 0 14 14" fill="none" xmlns="http://www.w3.org/2000/svg">
<path d="M7.28711 0.950195C7.48073 0.950244 7.66934 1.01207 7.8252 1.12695L13.2529 5.12988C13.9575 5.64936 13.5906 6.7666 12.7148 6.7666H12.4795V10.8232C12.8138 10.9695 13.1001 11.2078 13.3027 11.5117C13.5116 11.825 13.623 12.1938 13.623 12.5703V13.4268C13.623 13.5537 13.5722 13.6759 13.4824 13.7656C13.3927 13.8554 13.2705 13.9053 13.1436 13.9053H1.42969C1.16552 13.9052 0.951172 13.6909 0.951172 13.4268V12.5703C0.951056 12.1937 1.06262 11.8251 1.27148 11.5117C1.4741 11.2078 1.75952 10.9685 2.09375 10.8223V6.7666H1.8584C0.98322 6.7666 0.616409 5.64934 1.32031 5.12988L6.74902 1.12695C6.9049 1.01214 7.09351 0.950195 7.28711 0.950195ZM2.8584 11.6201C2.33401 11.6201 1.9082 12.0459 1.9082 12.5703V12.9482H12.665V12.5703C12.665 12.046 12.24 11.6203 11.7158 11.6201H2.8584ZM10.1943 10.6631H11.5225V6.7666H10.1943V10.6631ZM7.76562 10.6631H9.2373V6.7666H7.76562V10.6631ZM5.33691 10.6631H6.80859V6.7666H5.33691V10.6631ZM3.05078 10.6631H4.37988V6.7666H3.05078V10.6631ZM2.01074 5.80957H12.5625L7.28613 1.91895L2.01074 5.80957ZM7.28711 3.23438C7.52762 3.23444 7.75864 3.32993 7.92871 3.5C8.09872 3.6701 8.19434 3.9011 8.19434 4.1416C8.1943 4.38212 8.09877 4.61312 7.92871 4.7832C7.75864 4.95327 7.52762 5.04877 7.28711 5.04883C7.04661 5.04883 6.81561 4.95321 6.64551 4.7832C6.47542 4.61311 6.37992 4.38214 6.37988 4.1416C6.37988 3.90101 6.47539 3.67012 6.64551 3.5C6.81563 3.32991 7.04654 3.23438 7.28711 3.23438Z" fill="#3F51B5" stroke="#3F51B5" stroke-width="0.1"/>
</svg>
