<svg width="12" height="13" viewBox="0 0 12 13" fill="none" xmlns="http://www.w3.org/2000/svg">
<path d="M2.0625 4.39995V6.76245M9.9375 4.39995V6.76245M0.75 1.51245H11.25V3.61245L10.883 3.83295C10.5974 4.0043 10.2707 4.09481 9.93763 4.09481C9.60459 4.09481 9.27782 4.0043 8.99224 3.83295L8.625 3.61245L8.25803 3.83295C7.97245 4.0043 7.64567 4.09481 7.31263 4.09481C6.97959 4.09481 6.65282 4.0043 6.36724 3.83295L6 3.61245L5.63302 3.83295C5.34745 4.0043 5.02067 4.09481 4.68763 4.09481C4.35459 4.09481 4.02782 4.0043 3.74224 3.83295L3.375 3.61245L3.00776 3.83295C2.72222 4.00425 2.39549 4.09473 2.0625 4.09473C1.72951 4.09473 1.40278 4.00425 1.11724 3.83295L0.75 3.61245V1.51245ZM1.275 6.76245H10.725V11.4875H1.275V6.76245Z" stroke="#26A5F4" stroke-width="1.3" stroke-linecap="round" stroke-linejoin="round"/>
</svg>
