<svg width="1023" height="1023" viewBox="0 0 1023 1023" fill="none" xmlns="http://www.w3.org/2000/svg">
<rect width="1023" height="1023" fill="white"/>
<g filter="url(#filter0_d_2672_15423)">
<mask id="path-2-outside-1_2672_15423" maskUnits="userSpaceOnUse" x="348" y="241" width="331" height="563" fill="black">
<rect fill="white" x="348" y="241" width="331" height="563"/>
<path d="M644.975 286.4L637.175 378.8C628.775 377.6 620.775 377 613.175 377C605.975 376.6 599.775 378 594.575 381.2C589.775 384.4 586.575 391 584.975 401H644.375V530.6H584.975V773H412.175V530.6H379.775V401H412.175V393.2C412.175 363.6 417.575 340 428.375 322.4C439.575 304.4 454.775 291.6 473.975 284C493.575 276 515.775 272 540.575 272C556.575 272 573.375 273.4 590.975 276.2C608.575 278.6 626.575 282 644.975 286.4Z"/>
</mask>
<path d="M644.975 286.4L637.175 378.8C628.775 377.6 620.775 377 613.175 377C605.975 376.6 599.775 378 594.575 381.2C589.775 384.4 586.575 391 584.975 401H644.375V530.6H584.975V773H412.175V530.6H379.775V401H412.175V393.2C412.175 363.6 417.575 340 428.375 322.4C439.575 304.4 454.775 291.6 473.975 284C493.575 276 515.775 272 540.575 272C556.575 272 573.375 273.4 590.975 276.2C608.575 278.6 626.575 282 644.975 286.4Z" fill="#1F1F1F"/>
<path d="M644.975 286.4L675.865 289.008L678.107 262.449L652.185 256.25L644.975 286.4ZM637.175 378.8L632.791 409.488L665.303 414.133L668.065 381.408L637.175 378.8ZM613.175 377L611.455 407.952L612.315 408H613.175V377ZM594.575 381.2L578.328 354.799L577.848 355.094L577.379 355.406L594.575 381.2ZM584.975 401L554.364 396.102L548.621 432H584.975V401ZM644.375 401H675.375V370H644.375V401ZM644.375 530.6V561.6H675.375V530.6H644.375ZM584.975 530.6V499.6H553.975V530.6H584.975ZM584.975 773V804H615.975V773H584.975ZM412.175 773H381.175V804H412.175V773ZM412.175 530.6H443.175V499.6H412.175V530.6ZM379.775 530.6H348.775V561.6H379.775V530.6ZM379.775 401V370H348.775V401H379.775ZM412.175 401V432H443.175V401H412.175ZM428.375 322.4L402.054 306.023L402.003 306.104L401.953 306.186L428.375 322.4ZM473.975 284L485.384 312.824L485.537 312.763L485.69 312.701L473.975 284ZM590.975 276.2L586.104 306.815L586.445 306.869L586.786 306.916L590.975 276.2ZM644.975 286.4L614.085 283.792L606.285 376.192L637.175 378.8L668.065 381.408L675.865 289.008L644.975 286.4ZM637.175 378.8L641.559 348.112C631.872 346.728 622.4 346 613.175 346V377V408C619.15 408 625.678 408.472 632.791 409.488L637.175 378.8ZM613.175 377L614.895 346.048C602.553 345.362 589.832 347.719 578.328 354.799L594.575 381.2L610.822 407.601C610.632 407.719 610.439 407.814 610.262 407.885C610.088 407.956 609.976 407.983 609.953 407.989C609.904 408 610.346 407.891 611.455 407.952L613.175 377ZM594.575 381.2L577.379 355.406C561.536 365.969 556.365 383.596 554.364 396.102L584.975 401L615.586 405.898C615.818 404.444 616.062 403.418 616.255 402.749C616.45 402.073 616.557 401.894 616.469 402.074C616.303 402.417 615.055 404.804 611.771 406.993L594.575 381.2ZM584.975 401V432H644.375V401V370H584.975V401ZM644.375 401H613.375V530.6H644.375H675.375V401H644.375ZM644.375 530.6V499.6H584.975V530.6V561.6H644.375V530.6ZM584.975 530.6H553.975V773H584.975H615.975V530.6H584.975ZM584.975 773V742H412.175V773V804H584.975V773ZM412.175 773H443.175V530.6H412.175H381.175V773H412.175ZM412.175 530.6V499.6H379.775V530.6V561.6H412.175V530.6ZM379.775 530.6H410.775V401H379.775H348.775V530.6H379.775ZM379.775 401V432H412.175V401V370H379.775V401ZM412.175 401H443.175V393.2H412.175H381.175V401H412.175ZM412.175 393.2H443.175C443.175 366.974 448.018 349.66 454.797 338.613L428.375 322.4L401.953 306.186C387.132 330.34 381.175 360.226 381.175 393.2H412.175ZM428.375 322.4L454.696 338.777C462.487 326.255 472.534 317.91 485.384 312.824L473.975 284L462.566 255.176C437.016 265.289 416.663 282.545 402.054 306.023L428.375 322.4ZM473.975 284L485.69 312.701C500.99 306.456 519.114 303 540.575 303V272V241C512.436 241 486.16 245.544 462.26 255.299L473.975 284ZM540.575 272V303C554.772 303 569.936 304.243 586.104 306.815L590.975 276.2L595.846 245.585C576.814 242.557 558.378 241 540.575 241V272ZM590.975 276.2L586.786 306.916C603.308 309.169 620.298 312.373 637.765 316.55L644.975 286.4L652.185 256.25C632.852 251.627 613.842 248.031 595.164 245.484L590.975 276.2Z" fill="white" mask="url(#path-2-outside-1_2672_15423)"/>
</g>
<defs>
<filter id="filter0_d_2672_15423" x="323.775" y="220" width="379.332" height="613" filterUnits="userSpaceOnUse" color-interpolation-filters="sRGB">
<feFlood flood-opacity="0" result="BackgroundImageFix"/>
<feColorMatrix in="SourceAlpha" type="matrix" values="0 0 0 0 0 0 0 0 0 0 0 0 0 0 0 0 0 0 127 0" result="hardAlpha"/>
<feOffset dy="4"/>
<feGaussianBlur stdDeviation="12.5"/>
<feComposite in2="hardAlpha" operator="out"/>
<feColorMatrix type="matrix" values="0 0 0 0 0 0 0 0 0 0 0 0 0 0 0 0 0 0 0.25 0"/>
<feBlend mode="normal" in2="BackgroundImageFix" result="effect1_dropShadow_2672_15423"/>
<feBlend mode="normal" in="SourceGraphic" in2="effect1_dropShadow_2672_15423" result="shape"/>
</filter>
</defs>
</svg>
