<svg width="13" height="14" viewBox="0 0 13 14" fill="none" xmlns="http://www.w3.org/2000/svg">
<mask id="path-1-outside-1_3114_18328" maskUnits="userSpaceOnUse" x="0" y="0" width="13" height="14" fill="black">
<rect fill="white" width="13" height="14"/>
<path d="M1.29575 1.84156C1.43313 1.31743 1.91088 1.00068 2.41313 1.00068C2.72288 1.00068 3.00463 1.11706 3.219 1.30693C3.45536 1.10867 3.754 1 4.0625 1C4.371 1 4.66964 1.10867 4.906 1.30693C5.12779 1.10917 5.41472 1.00013 5.71187 1.00068C6.21412 1.00068 6.69188 1.31743 6.82925 1.84156C6.9605 2.34206 7.125 3.14881 7.125 4.06318C7.12498 4.57379 6.99729 5.0763 6.75354 5.52498C6.50979 5.97365 6.15773 6.35426 5.72938 6.63218C5.49225 6.78706 5.375 6.98656 5.375 7.15718V7.50368C5.375 7.52352 5.37617 7.54277 5.3785 7.56143C5.40825 7.77843 5.51587 8.58431 5.6165 9.41993C5.71537 10.2398 5.8125 11.1341 5.8125 11.5007C5.8125 11.9648 5.62813 12.4099 5.29994 12.7381C4.97175 13.0663 4.52663 13.2507 4.0625 13.2507C3.59837 13.2507 3.15325 13.0663 2.82506 12.7381C2.49687 12.4099 2.3125 11.9648 2.3125 11.5007C2.3125 11.1332 2.40962 10.2407 2.5085 9.41993C2.60912 8.58431 2.71675 7.77843 2.7465 7.56143L2.75 7.50368V7.15718C2.75 6.98656 2.63275 6.78706 2.39562 6.63218C1.96727 6.35426 1.61521 5.97365 1.37146 5.52498C1.12771 5.0763 1.00002 4.57379 1 4.06318C1 3.14881 1.1645 2.34206 1.29575 1.84156ZM5.375 4.50068C5.375 4.61672 5.32891 4.728 5.24686 4.81004C5.16481 4.89209 5.05353 4.93818 4.9375 4.93818C4.82147 4.93818 4.71019 4.89209 4.62814 4.81004C4.54609 4.728 4.5 4.61672 4.5 4.50068V2.31318C4.5 2.19715 4.45391 2.08587 4.37186 2.00382C4.28981 1.92178 4.17853 1.87568 4.0625 1.87568C3.94647 1.87568 3.83519 1.92178 3.75314 2.00382C3.67109 2.08587 3.625 2.19715 3.625 2.31318V4.50068C3.625 4.61672 3.57891 4.728 3.49686 4.81004C3.41481 4.89209 3.30353 4.93818 3.1875 4.93818C3.07147 4.93818 2.96019 4.89209 2.87814 4.81004C2.79609 4.728 2.75 4.61672 2.75 4.50068V2.21256C2.75 2.12321 2.71451 2.03753 2.65133 1.97435C2.58816 1.91118 2.50247 1.87568 2.41313 1.87568C2.26788 1.87568 2.16813 1.96231 2.14188 2.06381C1.96944 2.71644 1.87978 3.38817 1.875 4.06318C1.87496 4.42809 1.9662 4.78721 2.14043 5.10784C2.31465 5.42847 2.56631 5.70042 2.8725 5.89893C3.25663 6.14831 3.625 6.58668 3.625 7.15718V7.50368C3.625 7.56202 3.62121 7.62035 3.61363 7.67868C3.58388 7.89393 3.47713 8.69456 3.37738 9.52493C3.27588 10.3693 3.1875 11.1997 3.1875 11.5007C3.1875 11.7327 3.27969 11.9553 3.44378 12.1194C3.60788 12.2835 3.83044 12.3757 4.0625 12.3757C4.29456 12.3757 4.51712 12.2835 4.68122 12.1194C4.84531 11.9553 4.9375 11.7327 4.9375 11.5007C4.9375 11.1997 4.85 10.3693 4.74762 9.52406C4.64787 8.69456 4.54112 7.89393 4.51137 7.67781C4.50472 7.62028 4.50092 7.56246 4.5 7.50456V7.15806C4.5 6.58756 4.86838 6.14918 5.2525 5.89981C5.55881 5.70122 5.81055 5.42913 5.98478 5.10833C6.15901 4.78754 6.25019 4.42824 6.25 4.06318C6.25 3.24768 6.103 2.51968 5.98313 2.06381C5.95688 1.96318 5.85625 1.87568 5.71187 1.87568C5.62253 1.87568 5.53684 1.91118 5.47367 1.97435C5.41049 2.03753 5.375 2.12321 5.375 2.21256V4.50068ZM8 4.93818C8 3.89389 8.41484 2.89237 9.15327 2.15395C9.89169 1.41553 10.8932 1.00068 11.9375 1.00068C12.0535 1.00068 12.1648 1.04678 12.2469 1.12882C12.3289 1.21087 12.375 1.32215 12.375 1.43818V6.66456L12.3916 6.81943C12.4612 7.47248 12.528 8.12582 12.592 8.77943C12.6996 9.87843 12.8125 11.1104 12.8125 11.5007C12.8125 11.9648 12.6281 12.4099 12.2999 12.7381C11.9717 13.0663 11.5266 13.2507 11.0625 13.2507C10.5984 13.2507 10.1533 13.0663 9.82506 12.7381C9.49688 12.4099 9.3125 11.9648 9.3125 11.5007C9.3125 11.1104 9.42537 9.87843 9.533 8.77943C9.58812 8.22206 9.64325 7.68831 9.68437 7.29281L9.70187 7.12568H8.875C8.64294 7.12568 8.42038 7.0335 8.25628 6.8694C8.09219 6.70531 8 6.48275 8 6.25068V4.93818ZM10.6224 6.73456L10.604 6.91131C10.5356 7.56241 10.4691 8.2137 10.4045 8.86518C10.2934 9.99131 10.1875 11.1664 10.1875 11.5007C10.1875 11.7327 10.2797 11.9553 10.4438 12.1194C10.6079 12.2835 10.8304 12.3757 11.0625 12.3757C11.2946 12.3757 11.5171 12.2835 11.6812 12.1194C11.8453 11.9553 11.9375 11.7327 11.9375 11.5007C11.9375 11.1656 11.8316 9.99131 11.7205 8.86518C11.6563 8.21366 11.5898 7.56236 11.521 6.91131L11.5026 6.73543L11.5 6.68818V1.90631C10.771 2.01153 10.1043 2.37597 9.62221 2.93282C9.14009 3.48967 8.87481 4.20162 8.875 4.93818V6.25068H10.1875C10.2489 6.25071 10.3095 6.26363 10.3655 6.28862C10.4216 6.31361 10.4717 6.35011 10.5127 6.39574C10.5537 6.44137 10.5847 6.49512 10.6036 6.55349C10.6225 6.61186 10.6289 6.67355 10.6224 6.73456Z"/>
</mask>
<path d="M1.29575 1.84156C1.43313 1.31743 1.91088 1.00068 2.41313 1.00068C2.72288 1.00068 3.00463 1.11706 3.219 1.30693C3.45536 1.10867 3.754 1 4.0625 1C4.371 1 4.66964 1.10867 4.906 1.30693C5.12779 1.10917 5.41472 1.00013 5.71187 1.00068C6.21412 1.00068 6.69188 1.31743 6.82925 1.84156C6.9605 2.34206 7.125 3.14881 7.125 4.06318C7.12498 4.57379 6.99729 5.0763 6.75354 5.52498C6.50979 5.97365 6.15773 6.35426 5.72938 6.63218C5.49225 6.78706 5.375 6.98656 5.375 7.15718V7.50368C5.375 7.52352 5.37617 7.54277 5.3785 7.56143C5.40825 7.77843 5.51587 8.58431 5.6165 9.41993C5.71537 10.2398 5.8125 11.1341 5.8125 11.5007C5.8125 11.9648 5.62813 12.4099 5.29994 12.7381C4.97175 13.0663 4.52663 13.2507 4.0625 13.2507C3.59837 13.2507 3.15325 13.0663 2.82506 12.7381C2.49687 12.4099 2.3125 11.9648 2.3125 11.5007C2.3125 11.1332 2.40962 10.2407 2.5085 9.41993C2.60912 8.58431 2.71675 7.77843 2.7465 7.56143L2.75 7.50368V7.15718C2.75 6.98656 2.63275 6.78706 2.39562 6.63218C1.96727 6.35426 1.61521 5.97365 1.37146 5.52498C1.12771 5.0763 1.00002 4.57379 1 4.06318C1 3.14881 1.1645 2.34206 1.29575 1.84156ZM5.375 4.50068C5.375 4.61672 5.32891 4.728 5.24686 4.81004C5.16481 4.89209 5.05353 4.93818 4.9375 4.93818C4.82147 4.93818 4.71019 4.89209 4.62814 4.81004C4.54609 4.728 4.5 4.61672 4.5 4.50068V2.31318C4.5 2.19715 4.45391 2.08587 4.37186 2.00382C4.28981 1.92178 4.17853 1.87568 4.0625 1.87568C3.94647 1.87568 3.83519 1.92178 3.75314 2.00382C3.67109 2.08587 3.625 2.19715 3.625 2.31318V4.50068C3.625 4.61672 3.57891 4.728 3.49686 4.81004C3.41481 4.89209 3.30353 4.93818 3.1875 4.93818C3.07147 4.93818 2.96019 4.89209 2.87814 4.81004C2.79609 4.728 2.75 4.61672 2.75 4.50068V2.21256C2.75 2.12321 2.71451 2.03753 2.65133 1.97435C2.58816 1.91118 2.50247 1.87568 2.41313 1.87568C2.26788 1.87568 2.16813 1.96231 2.14188 2.06381C1.96944 2.71644 1.87978 3.38817 1.875 4.06318C1.87496 4.42809 1.9662 4.78721 2.14043 5.10784C2.31465 5.42847 2.56631 5.70042 2.8725 5.89893C3.25663 6.14831 3.625 6.58668 3.625 7.15718V7.50368C3.625 7.56202 3.62121 7.62035 3.61363 7.67868C3.58388 7.89393 3.47713 8.69456 3.37738 9.52493C3.27588 10.3693 3.1875 11.1997 3.1875 11.5007C3.1875 11.7327 3.27969 11.9553 3.44378 12.1194C3.60788 12.2835 3.83044 12.3757 4.0625 12.3757C4.29456 12.3757 4.51712 12.2835 4.68122 12.1194C4.84531 11.9553 4.9375 11.7327 4.9375 11.5007C4.9375 11.1997 4.85 10.3693 4.74762 9.52406C4.64787 8.69456 4.54112 7.89393 4.51137 7.67781C4.50472 7.62028 4.50092 7.56246 4.5 7.50456V7.15806C4.5 6.58756 4.86838 6.14918 5.2525 5.89981C5.55881 5.70122 5.81055 5.42913 5.98478 5.10833C6.15901 4.78754 6.25019 4.42824 6.25 4.06318C6.25 3.24768 6.103 2.51968 5.98313 2.06381C5.95688 1.96318 5.85625 1.87568 5.71187 1.87568C5.62253 1.87568 5.53684 1.91118 5.47367 1.97435C5.41049 2.03753 5.375 2.12321 5.375 2.21256V4.50068ZM8 4.93818C8 3.89389 8.41484 2.89237 9.15327 2.15395C9.89169 1.41553 10.8932 1.00068 11.9375 1.00068C12.0535 1.00068 12.1648 1.04678 12.2469 1.12882C12.3289 1.21087 12.375 1.32215 12.375 1.43818V6.66456L12.3916 6.81943C12.4612 7.47248 12.528 8.12582 12.592 8.77943C12.6996 9.87843 12.8125 11.1104 12.8125 11.5007C12.8125 11.9648 12.6281 12.4099 12.2999 12.7381C11.9717 13.0663 11.5266 13.2507 11.0625 13.2507C10.5984 13.2507 10.1533 13.0663 9.82506 12.7381C9.49688 12.4099 9.3125 11.9648 9.3125 11.5007C9.3125 11.1104 9.42537 9.87843 9.533 8.77943C9.58812 8.22206 9.64325 7.68831 9.68437 7.29281L9.70187 7.12568H8.875C8.64294 7.12568 8.42038 7.0335 8.25628 6.8694C8.09219 6.70531 8 6.48275 8 6.25068V4.93818ZM10.6224 6.73456L10.604 6.91131C10.5356 7.56241 10.4691 8.2137 10.4045 8.86518C10.2934 9.99131 10.1875 11.1664 10.1875 11.5007C10.1875 11.7327 10.2797 11.9553 10.4438 12.1194C10.6079 12.2835 10.8304 12.3757 11.0625 12.3757C11.2946 12.3757 11.5171 12.2835 11.6812 12.1194C11.8453 11.9553 11.9375 11.7327 11.9375 11.5007C11.9375 11.1656 11.8316 9.99131 11.7205 8.86518C11.6563 8.21366 11.5898 7.56236 11.521 6.91131L11.5026 6.73543L11.5 6.68818V1.90631C10.771 2.01153 10.1043 2.37597 9.62221 2.93282C9.14009 3.48967 8.87481 4.20162 8.875 4.93818V6.25068H10.1875C10.2489 6.25071 10.3095 6.26363 10.3655 6.28862C10.4216 6.31361 10.4717 6.35011 10.5127 6.39574C10.5537 6.44137 10.5847 6.49512 10.6036 6.55349C10.6225 6.61186 10.6289 6.67355 10.6224 6.73456Z" fill="#07A20C"/>
<path d="M1.29575 1.84156C1.43313 1.31743 1.91088 1.00068 2.41313 1.00068C2.72288 1.00068 3.00463 1.11706 3.219 1.30693C3.45536 1.10867 3.754 1 4.0625 1C4.371 1 4.66964 1.10867 4.906 1.30693C5.12779 1.10917 5.41472 1.00013 5.71187 1.00068C6.21412 1.00068 6.69188 1.31743 6.82925 1.84156C6.9605 2.34206 7.125 3.14881 7.125 4.06318C7.12498 4.57379 6.99729 5.0763 6.75354 5.52498C6.50979 5.97365 6.15773 6.35426 5.72938 6.63218C5.49225 6.78706 5.375 6.98656 5.375 7.15718V7.50368C5.375 7.52352 5.37617 7.54277 5.3785 7.56143C5.40825 7.77843 5.51587 8.58431 5.6165 9.41993C5.71537 10.2398 5.8125 11.1341 5.8125 11.5007C5.8125 11.9648 5.62813 12.4099 5.29994 12.7381C4.97175 13.0663 4.52663 13.2507 4.0625 13.2507C3.59837 13.2507 3.15325 13.0663 2.82506 12.7381C2.49687 12.4099 2.3125 11.9648 2.3125 11.5007C2.3125 11.1332 2.40962 10.2407 2.5085 9.41993C2.60912 8.58431 2.71675 7.77843 2.7465 7.56143L2.75 7.50368V7.15718C2.75 6.98656 2.63275 6.78706 2.39562 6.63218C1.96727 6.35426 1.61521 5.97365 1.37146 5.52498C1.12771 5.0763 1.00002 4.57379 1 4.06318C1 3.14881 1.1645 2.34206 1.29575 1.84156ZM5.375 4.50068C5.375 4.61672 5.32891 4.728 5.24686 4.81004C5.16481 4.89209 5.05353 4.93818 4.9375 4.93818C4.82147 4.93818 4.71019 4.89209 4.62814 4.81004C4.54609 4.728 4.5 4.61672 4.5 4.50068V2.31318C4.5 2.19715 4.45391 2.08587 4.37186 2.00382C4.28981 1.92178 4.17853 1.87568 4.0625 1.87568C3.94647 1.87568 3.83519 1.92178 3.75314 2.00382C3.67109 2.08587 3.625 2.19715 3.625 2.31318V4.50068C3.625 4.61672 3.57891 4.728 3.49686 4.81004C3.41481 4.89209 3.30353 4.93818 3.1875 4.93818C3.07147 4.93818 2.96019 4.89209 2.87814 4.81004C2.79609 4.728 2.75 4.61672 2.75 4.50068V2.21256C2.75 2.12321 2.71451 2.03753 2.65133 1.97435C2.58816 1.91118 2.50247 1.87568 2.41313 1.87568C2.26788 1.87568 2.16813 1.96231 2.14188 2.06381C1.96944 2.71644 1.87978 3.38817 1.875 4.06318C1.87496 4.42809 1.9662 4.78721 2.14043 5.10784C2.31465 5.42847 2.56631 5.70042 2.8725 5.89893C3.25663 6.14831 3.625 6.58668 3.625 7.15718V7.50368C3.625 7.56202 3.62121 7.62035 3.61363 7.67868C3.58388 7.89393 3.47713 8.69456 3.37738 9.52493C3.27588 10.3693 3.1875 11.1997 3.1875 11.5007C3.1875 11.7327 3.27969 11.9553 3.44378 12.1194C3.60788 12.2835 3.83044 12.3757 4.0625 12.3757C4.29456 12.3757 4.51712 12.2835 4.68122 12.1194C4.84531 11.9553 4.9375 11.7327 4.9375 11.5007C4.9375 11.1997 4.85 10.3693 4.74762 9.52406C4.64787 8.69456 4.54112 7.89393 4.51137 7.67781C4.50472 7.62028 4.50092 7.56246 4.5 7.50456V7.15806C4.5 6.58756 4.86838 6.14918 5.2525 5.89981C5.55881 5.70122 5.81055 5.42913 5.98478 5.10833C6.15901 4.78754 6.25019 4.42824 6.25 4.06318C6.25 3.24768 6.103 2.51968 5.98313 2.06381C5.95688 1.96318 5.85625 1.87568 5.71187 1.87568C5.62253 1.87568 5.53684 1.91118 5.47367 1.97435C5.41049 2.03753 5.375 2.12321 5.375 2.21256V4.50068ZM8 4.93818C8 3.89389 8.41484 2.89237 9.15327 2.15395C9.89169 1.41553 10.8932 1.00068 11.9375 1.00068C12.0535 1.00068 12.1648 1.04678 12.2469 1.12882C12.3289 1.21087 12.375 1.32215 12.375 1.43818V6.66456L12.3916 6.81943C12.4612 7.47248 12.528 8.12582 12.592 8.77943C12.6996 9.87843 12.8125 11.1104 12.8125 11.5007C12.8125 11.9648 12.6281 12.4099 12.2999 12.7381C11.9717 13.0663 11.5266 13.2507 11.0625 13.2507C10.5984 13.2507 10.1533 13.0663 9.82506 12.7381C9.49688 12.4099 9.3125 11.9648 9.3125 11.5007C9.3125 11.1104 9.42537 9.87843 9.533 8.77943C9.58812 8.22206 9.64325 7.68831 9.68437 7.29281L9.70187 7.12568H8.875C8.64294 7.12568 8.42038 7.0335 8.25628 6.8694C8.09219 6.70531 8 6.48275 8 6.25068V4.93818ZM10.6224 6.73456L10.604 6.91131C10.5356 7.56241 10.4691 8.2137 10.4045 8.86518C10.2934 9.99131 10.1875 11.1664 10.1875 11.5007C10.1875 11.7327 10.2797 11.9553 10.4438 12.1194C10.6079 12.2835 10.8304 12.3757 11.0625 12.3757C11.2946 12.3757 11.5171 12.2835 11.6812 12.1194C11.8453 11.9553 11.9375 11.7327 11.9375 11.5007C11.9375 11.1656 11.8316 9.99131 11.7205 8.86518C11.6563 8.21366 11.5898 7.56236 11.521 6.91131L11.5026 6.73543L11.5 6.68818V1.90631C10.771 2.01153 10.1043 2.37597 9.62221 2.93282C9.14009 3.48967 8.87481 4.20162 8.875 4.93818V6.25068H10.1875C10.2489 6.25071 10.3095 6.26363 10.3655 6.28862C10.4216 6.31361 10.4717 6.35011 10.5127 6.39574C10.5537 6.44137 10.5847 6.49512 10.6036 6.55349C10.6225 6.61186 10.6289 6.67355 10.6224 6.73456Z" stroke="#07A20C" stroke-width="0.2" mask="url(#path-1-outside-1_3114_18328)"/>
</svg>
