<svg width="12" height="11" viewBox="0 0 12 11" fill="none" xmlns="http://www.w3.org/2000/svg">
<path d="M6 8.86111C6.75 8.86111 7.3876 8.59385 7.9128 8.05933C8.438 7.52481 8.7004 6.87541 8.7 6.11111C8.6996 5.34681 8.4372 4.69761 7.9128 4.1635C7.3884 3.62939 6.7508 3.36193 6 3.36111C5.2492 3.3603 4.6118 3.62776 4.0878 4.1635C3.5638 4.69924 3.3012 5.34844 3.3 6.11111C3.2988 6.87378 3.5614 7.52318 4.0878 8.05933C4.6142 8.59548 5.2516 8.86274 6 8.86111ZM6 7.63889C5.58 7.63889 5.225 7.4912 4.935 7.19583C4.645 6.90046 4.5 6.53889 4.5 6.11111C4.5 5.68333 4.645 5.32176 4.935 5.02639C5.225 4.73102 5.58 4.58333 6 4.58333C6.42 4.58333 6.775 4.73102 7.065 5.02639C7.355 5.32176 7.5 5.68333 7.5 6.11111C7.5 6.53889 7.355 6.90046 7.065 7.19583C6.775 7.4912 6.42 7.63889 6 7.63889ZM1.2 11C0.87 11 0.5876 10.8804 0.3528 10.6413C0.118 10.4021 0.0004 10.1143 0 9.77778V2.44444C0 2.10833 0.1176 1.8207 0.3528 1.58156C0.588 1.34241 0.8704 1.22263 1.2 1.22222H3.09L4.2 0H7.8L8.91 1.22222H10.8C11.13 1.22222 11.4126 1.342 11.6478 1.58156C11.883 1.82111 12.0004 2.10874 12 2.44444V9.77778C12 10.1139 11.8826 10.4017 11.6478 10.6413C11.413 10.8808 11.1304 11.0004 10.8 11H1.2ZM1.2 9.77778H10.8V2.44444H8.37L7.275 1.22222H4.725L3.63 2.44444H1.2V9.77778Z" fill="#F06292"/>
</svg>
